<?xml version="1.0" encoding="utf-8"?>
<!-- Generator: Adobe Illustrator 24.2.3, SVG Export Plug-In . SVG Version: 6.00 Build 0)  -->
<svg version="1.1" id="Layer_1" xmlns="http://www.w3.org/2000/svg" xmlns:xlink="http://www.w3.org/1999/xlink" x="0px" y="0px"
	 viewBox="0 0 262.6 262.6" style="enable-background:new 0 0 262.6 262.6;" xml:space="preserve">
<style type="text/css">
	.st0{fill-rule:evenodd;clip-rule:evenodd;fill:#F3F3F4;}
	.st1{fill-rule:evenodd;clip-rule:evenodd;fill:#4D76BA;}
</style>
<g id="Final">
	<g id="logo-invert">
		<g id="mark" transform="translate(0.000000, 75.000000)">
			<path id="x" class="st0" d="M74.6,76H19.7C8.8,76,0,67.2,0,56.3c0-10.9,8.8-19.7,19.7-19.7l54.9,0C70.2,49.3,70.2,63.2,74.6,76
				L74.6,76z M111.6-0.4v-54.9c0-10.9,8.8-19.7,19.7-19.7c10.9,0,19.7,8.8,19.7,19.7v54.9C138.2-4.8,124.3-4.8,111.6-0.4L111.6-0.4z
				 M188,36.6l54.9,0c10.9,0,19.7,8.8,19.7,19.7c0,10.9-8.8,19.7-19.7,19.7H188C192.4,63.2,192.4,49.3,188,36.6L188,36.6z M151,113
				v54.9c0,10.9-8.8,19.7-19.7,19.7c-10.9,0-19.7-8.8-19.7-19.7l0-54.9C124.3,117.4,138.2,117.4,151,113L151,113z"/>
			<path id="circle" class="st1" d="M110.1,77.5c11.7,11.7,30.7,11.7,42.4,0s11.7-30.7,0-42.4s-30.7-11.7-42.4,0
				S98.4,65.8,110.1,77.5z"/>
		</g>
	</g>
</g>
</svg>
